<?xml version="1.0" encoding="UTF-8"?>
<svg id="Layer_1" data-name="Layer 1" xmlns="http://www.w3.org/2000/svg" viewBox="0 0 548.81 134.97">
  <defs>
    <style>
      .cls-1 {
        fill: #1e76bd;
      }

      .cls-2 {
        fill: #636567;
      }
    </style>
  </defs>
  <g>
    <path class="cls-1" d="M91.08,75.18c-9.4-3.17-17.63-5.38-17.63-10.88,0-5.07,4.65-7.92,11.4-7.92,5.07,0,9.76,2.21,12.46,6.53h15.83c-3.43-11.22-14.13-19.3-27.75-19.3-15.63,0-27.02,9.82-27.02,21.32,0,12.88,10.77,17.32,19.64,20.47,10.45,3.8,20.9,6.13,20.9,13.2,0,4.75-4.54,8.56-11.93,8.56-6.74,0-11.96-3.26-14.81-7.74h-16.09c4.26,12.77,14.76,21.03,29.83,21.03,16.89,0,28.29-9.4,28.29-22.59,0-14.47-12.35-18.9-23.12-22.69Z"/>
    <path class="cls-1" d="M35,75.18c-9.4-3.17-17.63-5.38-17.63-10.88,0-5.07,4.65-7.92,11.4-7.92,5.07,0,9.76,2.21,12.46,6.53h15.83c-3.43-11.22-14.13-19.3-27.75-19.3-15.63,0-27.02,9.82-27.02,21.32,0,12.88,10.77,17.32,19.64,20.47,10.45,3.8,20.9,6.13,20.9,13.2,0,4.75-4.54,8.56-11.93,8.56-6.74,0-11.96-3.26-14.81-7.74H0c4.26,12.77,14.76,21.03,29.83,21.03,16.9,0,28.29-9.4,28.29-22.59,0-14.47-12.36-18.9-23.12-22.69Z"/>
    <path class="cls-1" d="M231.49,99.43c-4.15,3.91-10.08,6.37-16.36,6.37-13.2,0-23.01-9.29-23.01-23.75s9.19-23.96,23.01-23.96c5.2,0,10.45,1.79,14.45,4.84h18.99c-6.58-11.69-18.97-19.3-33.43-19.3-21.22,0-38.32,16.16-38.32,38.43s17.11,38.43,38.32,38.43c15.28,0,28.19-8.3,34.43-21.03h-18.08v-.02Z"/>
    <g>
      <path class="cls-1" d="M132.97,95.11c0,4.22,3.45,7.24,8.23,7.24,3.38,0,6.47-1.62,9.28-4.29l-.06-.06-11.05-11.05c-4.46,1.97-6.4,4.96-6.4,8.16Z"/>
      <path class="cls-1" d="M150.19,71.19c0-3.44-2.32-5.63-5.63-5.63-3.52,0-5.84,2.46-5.84,5.98,0,2.53.98,4.36,3.73,7.38,5.06-1.83,7.74-4.08,7.74-7.74h0Z"/>
      <path class="cls-1" d="M114.17,0v134.97h63.56V0h-63.56ZM163.75,111.33l-8.29-8.29-.07.08c-4.22,3.94-9.14,6.4-15.12,6.4-9.14,0-16.03-5.49-16.03-14.14,0-6.4,3.73-10.97,10.48-13.86-2.81-3.66-4.08-6.68-4.08-10.34,0-6.68,5.34-12.45,14.14-12.45,7.81,0,13.08,5.2,13.08,11.96s-4.29,10.41-10.83,12.87l3.26,3.31h13.47v24.45h0Z"/>
    </g>
  </g>
  <path class="cls-2" d="M272.57,110.87c-.21,0-.37-.18-.37-.39v-56.86c0-.22.17-.39.37-.39s.37.18.37.39v56.86c0,.21-.17.39-.37.39Z"/>
  <g>
    <path class="cls-2" d="M540.84,79.01c-4.46,0-7.92-3.58-7.92-7.92s3.51-7.96,7.96-7.96,7.92,3.58,7.92,7.92-3.51,7.96-7.96,7.96ZM540.89,63.8c-4.12,0-7.24,3.29-7.24,7.29s3.09,7.25,7.2,7.25,7.25-3.29,7.25-7.29-3.09-7.25-7.2-7.25h-.01ZM542.36,71.63l2.53,3.27h-1.5l-2.34-3.07h-2.08v3.07h-1.2v-8.15h3.65c1.8,0,3.07.94,3.07,2.46,0,1.33-.88,2.13-2.1,2.42h-.02ZM541.35,67.86h-2.4v2.9h2.32c1.14,0,1.93-.53,1.93-1.48s-.7-1.43-1.86-1.43h0Z"/>
    <g>
      <path class="cls-2" d="M299.78,64.42v36.87h-4.16v-36.87h4.16Z"/>
      <path class="cls-2" d="M313.95,101.29h-4.06v-27.23h4.06v4.74c1.79-2.95,4.64-5.32,9.32-5.32,6.59,0,10.43,4.42,10.43,10.91v16.91h-4.06v-15.91c0-5.06-2.74-8.22-7.53-8.22s-8.16,3.42-8.16,8.53v15.59Z"/>
      <path class="cls-2" d="M347.83,93.55c0,3.32,1.85,4.53,4.59,4.53,1.37,0,2.52-.26,3.95-.95v3.47c-1.42.74-2.95,1.16-4.9,1.16-4.37,0-7.69-2.16-7.69-7.69v-16.43h-3.79v-3.59h3.79v-8.22h4.06v8.22h8.64v3.59h-8.64v15.91h-.01Z"/>
      <path class="cls-2" d="M367.68,101.29h-4.06v-27.23h4.06v7.11c2-4.53,5.95-7.8,11.11-7.58v4.37h-.31c-5.95,0-10.8,4.26-10.8,12.48v10.85Z"/>
      <path class="cls-2" d="M385.23,79.27l-1.21-3.32c3-1.37,5.95-2.26,9.9-2.26,7.42,0,11.58,3.79,11.58,10.96v16.64h-3.9v-4.11c-1.9,2.47-5.06,4.69-9.85,4.69-5.06,0-10.17-2.85-10.17-8.53s4.74-8.85,11.65-8.85c3.47,0,5.95.47,8.37,1.16v-.95c0-4.9-3-7.42-8.11-7.42-3.21,0-5.75.85-8.27,2h.01ZM385.7,93.18c0,3.47,3.16,5.47,6.85,5.47,5,0,9.11-3.05,9.11-7.37v-2.64c-2-.58-4.69-1.16-8.01-1.16-5.11,0-7.95,2.21-7.95,5.69h0Z"/>
      <path class="cls-2" d="M414.52,101.29v-38.45h4.06v38.45h-4.06Z"/>
      <path class="cls-2" d="M428.11,68.11v-4.47h4.64v4.47h-4.64ZM428.37,101.29v-27.23h4.06v27.23h-4.06Z"/>
      <path class="cls-2" d="M445.91,101.29h-4.06v-27.23h4.06v4.74c1.79-2.95,4.64-5.32,9.32-5.32,6.59,0,10.43,4.42,10.43,10.91v16.91h-4.06v-15.91c0-5.06-2.74-8.22-7.53-8.22s-8.16,3.42-8.16,8.53v15.59h0Z"/>
      <path class="cls-2" d="M498.48,101.29h-4.85l-9.75-12.7-5.53,5.59v7.11h-4.06v-38.45h4.06v26.54l14.7-15.33h5.06l-11.43,11.7,11.8,15.54h.01Z"/>
      <path class="cls-2" d="M513.28,101.81c-3.9,0-8.21-1.53-11.27-4l2.05-2.9c2.95,2.21,6.21,3.47,9.42,3.47s5.64-1.69,5.64-4.32v-.1c0-2.74-3.21-3.8-6.8-4.8-4.26-1.21-9.01-2.69-9.01-7.69v-.1c0-4.69,3.9-7.8,9.27-7.8,3.31,0,7.01,1.16,9.8,3l-1.85,3.06c-2.52-1.64-5.42-2.64-8.06-2.64-3.21,0-5.27,1.69-5.27,3.95v.1c0,2.59,3.37,3.59,7.01,4.69,4.21,1.26,8.75,2.9,8.75,7.8v.1c0,5.16-4.26,8.16-9.7,8.16h.02Z"/>
    </g>
  </g>
</svg>